HIERARCHY
ROOT HipCenter
{
    OFFSET 0.0 0.0 -0.0
    CHANNELS 6 Xposition Yposition Zposition Zrotation Xrotation Yrotation
    JOINT Spine
    {
        OFFSET 0.0 0.12153702974319458 0.0
        CHANNELS 3 Zrotation Xrotation Yrotation
        JOINT ShoulderCenter
        {
            OFFSET 0.0 0.33265697956085205 0.0
            CHANNELS 3 Zrotation Xrotation Yrotation
            JOINT LeftShoulder
            {
                OFFSET 0.22372221946716309 0.0 0.0
                CHANNELS 3 Zrotation Xrotation Yrotation
                JOINT LeftElbow
                {
                    OFFSET 0.304353266954422 0.0 0.0
                    CHANNELS 3 Zrotation Xrotation Yrotation
                    JOINT LeftWrist
                    {
                        OFFSET 0.31162285804748535 0.0 0.0
                        CHANNELS 3 Zrotation Xrotation Yrotation
                        JOINT LeftHand
                        {
                            OFFSET 0.033340685069561005 0.0 0.0
                            CHANNELS 3 Zrotation Xrotation Yrotation
                            End Site
                            {
                                OFFSET 0.013336274772882462 0.0 0.0
                            }
                        }
                    }
                }
            }
            JOINT RightShoulder
            {
                OFFSET -0.22372221946716309 0.0 0.0
                CHANNELS 3 Zrotation Xrotation Yrotation
                JOINT RightElbow
                {
                    OFFSET -0.304353266954422 0.0 0.0
                    CHANNELS 3 Zrotation Xrotation Yrotation
                    JOINT RightWrist
                    {
                        OFFSET -0.31162285804748535 0.0 0.0
                        CHANNELS 3 Zrotation Xrotation Yrotation
                        JOINT RightHand
                        {
                            OFFSET -0.033340685069561005 0.0 0.0
                            CHANNELS 3 Zrotation Xrotation Yrotation
                            End Site
                            {
                                OFFSET -0.013336274772882462 0.0 0.0
                            }
                        }
                    }
                }
            }
            End Site
            {
                OFFSET 0.0 0.13306276500225067 0.0
            }
        }
    }
    JOINT LeftHip
    {
        OFFSET 0.13712283968925476 0.0 0.0
        CHANNELS 3 Zrotation Xrotation Yrotation
        JOINT LeftKnee
        {
            OFFSET 0.0 -0.4269547462463379 0.0
            CHANNELS 3 Zrotation Xrotation Yrotation
            JOINT LeftAnkle
            {
                OFFSET 0.0 -0.43501633405685425 0.0
                CHANNELS 3 Zrotation Xrotation Yrotation
                JOINT LeftFoot
                {
                    OFFSET 0.0 -0.13799813389778137 0.0
                    CHANNELS 3 Zrotation Xrotation Yrotation
                    End Site
                    {
                        OFFSET 0.0 0.0 0.05519925802946091
                    }
                }
            }
        }
    }
    JOINT RightHip
    {
        OFFSET -0.13712283968925476 0.0 0.0
        CHANNELS 3 Zrotation Xrotation Yrotation
        JOINT RightKnee
        {
            OFFSET 0.0 -0.4269547462463379 0.0
            CHANNELS 3 Zrotation Xrotation Yrotation
            JOINT RightAnkle
            {
                OFFSET 0.0 -0.43501633405685425 0.0
                CHANNELS 3 Zrotation Xrotation Yrotation
                JOINT RightFoot
                {
                    OFFSET 0.0 -0.13799813389778137 0.0
                    CHANNELS 3 Zrotation Xrotation Yrotation
                    End Site
                    {
                        OFFSET 0.0 0.0 0.05519925802946091
                    }
                }
            }
        }
    }
}
MOTION
Frames: 7
Frame Time: 0.03333333333333333
0.03099999949336052 -0.4779999852180481 2.0260000228881836 114.87415040346941 -5.183836531060214 -120.38491129301086 10.837850305168711 3.5222919424129313 -0.6648928870575539 2.114905492458686e-06 -9.744182021720132e-07 14.639198390778287 134.77796460578003 7.760521124639118 -118.65690998277788 -7.287038810009124e-06 -6.704339415437497e-06 119.15711613674206 4.836552914610155e-06 9.268460885971441 26.72527223290877 -4.770832022195275e-15 0.0 0.0 -132.2923892170066 4.372634048543125 125.00917713494596 -4.367313830131606e-06 -1.1769253188149321e-06 -82.88507524502101 -2.619288307438383e-06 -37.194954660248 -68.63766389448993 0.0 6.3611093629270335e-15 0.0 172.80029701195676 -86.26822948042299 -148.0265138360332 86.72312736751398 37.2173609630433 -145.38295253426548 100.65336276758967 -22.623989426291697 160.55010223219924 -4.0999337690740647e-16 3.1774486710324002e-15 -6.274141070855766e-16 -142.6074087369246 -60.81595328743253 151.88641450383622 -100.9300061586866 35.88040469413041 154.44085755777215 -98.44786692087125 -10.575643300787975 -167.34464296875873 1.5902773407317588e-15 1.272221872585407e-14 -1.7655625192200634e-31
-0.024000000208616257 -0.5519999861717224 2.132999897003174 110.44179874715451 -14.335284924478788 -131.36582455827102 9.213840056555057 4.457443288614456 -0.9060124733528824 1.7010193826180286e-06 1.6825857857789846e-06 20.031305294682227 132.0138080706475 -13.832066336060905 -128.61952103482673 -3.670274657604407e-06 -3.6622211411256203e-06 123.05999769607861 4.449787919936054e-07 13.167832478869895 42.73842798123119 3.1805546814635168e-15 -8.827812596100317e-32 -3.1805546814635168e-15 -134.71161774249342 3.578127013668349 127.7948945825522 -1.2150227727214095e-06 -5.861930838726831e-07 -79.72364465875148 -1.42173657984792e-06 -40.299900367000454 -72.46967232667775 0.0 0.0 0.0 -27.714786673926323 -87.6912957038525 9.331981639636588 80.48859724394684 42.89026299081082 -137.09657479020572 97.45639700186618 -27.410795894982357 154.27133428161693 -5.963540027744094e-16 5.431173765178906e-33 -1.0436195048552165e-15 -131.84377629300337 -62.63868338128537 162.95252777113967 -95.44213340594511 35.32304164089583 154.47729341411824 -96.84027141522598 -8.708186429675036 -169.08682171373604 0.0 0.0 -1.5902773407317582e-15
-0.06199999898672104 -0.6299999952316284 2.2219998836517334 103.06933002536337 -20.06648261974722 -142.85344715825 7.617645552468397 7.00547199076938 -1.4156814417183539 1.95920065136173e-06 1.4385806122748972e-06 22.765352361391816 122.36167172998971 -31.542040551949107 -133.56038891198511 8.554291471392761e-07 8.472165839436504e-07 121.63461409479915 -2.4205094393114557e-06 24.782763033450898 51.16173981346132 7.951386703658791e-16 0.0 0.0 -137.22639062861694 2.051004780407219 127.05743605650912 -1.605900396930425e-06 -4.037097331794994e-06 -74.06993946669895 -2.3200658831512996e-06 -40.7751970848926 -71.67278721626876 1.590277340731758e-15 6.559894030518502e-15 1.590277340731758e-15 -20.9952663140425 -83.29019228473031 18.074315358518888 74.53819006081125 44.99874037853454 -127.98315478356223 95.55471158094252 -38.33503043178077 147.10597278725527 7.951386703658794e-16 6.361109362927035e-15 -1.1927080055488192e-15 -123.76784734506957 -59.983425667625646 168.1610069652397 -94.8855668977967 30.10397203800213 156.58104176364628 -94.94271764957597 -7.318358567668953 -171.17704483024963 -5.963540027744096e-16 6.361109362927035e-15 3.310429723537619e-32
-0.10999999940395355 -0.7009999752044678 2.2960000038146973 98.35077074814838 -24.410999697433006 -156.4607428105732 7.054434509556124 8.810161626486936 -1.2531959356213316 6.305083507115976e-07 -4.547938613719039e-06 22.49450122724637 105.84629108036576 -39.23960232126023 -144.76708668568892 6.657565545215829e-07 1.6630265220681084e-07 122.85929530582929 3.061620195725926e-06 34.53742569936824 57.58418878476248 7.951386703658792e-16 5.517382872562698e-33 7.951386703658792e-16 -138.6660179902009 -1.4374283646370536 122.60625929733061 -2.73421528107237e-06 -3.1897945018530416e-06 -71.18096954001003 -5.020643432150594e-06 -33.78348251137658 -62.1528779228089 0.0 0.0 3.1805546814635176e-15 6.063757636314023 -80.3819384738169 40.2783832461822 58.87528386516059 52.64871251255449 -112.64213516775915 92.97279273873069 -40.87870116592132 140.18314075184375 -6.3611093629270335e-15 6.3611093629270335e-15 -2.385416011097637e-15 -121.2619739091939 -58.687845932525484 166.25109716077037 -95.61622783812382 27.13289978630513 159.38255725591867 -92.94582347379342 -6.406423599258881 -171.70877093619356 -2.3854160110976376e-15 0.0 0.0
-0.15199999511241913 -0.7720000147819519 2.359999895095825 93.70841476738278 -27.35852616729303 -170.00126776862862 7.045158760895999 10.85337306356503 -1.4480985051974267 8.744297921308735e-07 -5.398677957935627e-07 17.498404211960175 89.43496890123846 -31.994651333837727 -140.96892788745404 1.1645564603818779e-07 -5.8151606446717014e-08 126.38706752740282 7.067206768659555e-07 -9.772361154433506 53.25153952545866 1.3914926731402886e-15 0.0 0.0 -136.5533732159403 -6.393223680914063 120.40595394293878 4.739474741741541e-06 -6.508863904265264e-06 -73.284010078496 -1.7439332598892272e-06 -24.262017585568284 -51.3843485880095 0.0 0.0 3.1805546814635176e-15 17.126565598424342 -78.37872580674772 48.4659672100033 43.31190811453809 53.74026402243993 -98.08696263983197 85.83181637533023 -37.80097419483098 135.3512775231958 -4.770832022195275e-15 6.3611093629270335e-15 7.951386703658796e-16 -119.62536996373208 -57.36460098133365 165.69718302240273 -99.04497472505629 27.10808610259463 162.83387695736013 -93.39261106809208 -7.035156876628712 -169.46115884091495 1.5902773407317584e-15 0.0 0.0
-0.20100000500679016 -0.843999981880188 2.4189999103546143 87.87889187646503 -27.391529915868077 175.2829939322972 4.759548671513138 14.405093347746172 -1.8155408287344503 1.8702513239937156e-06 -6.876483373630304e-07 9.34368471704868 85.05176647673882 -25.108282388880763 -139.1058541857223 -2.469854196013264e-06 2.9129930036261255e-07 122.45803658798845 -3.420187360841678e-06 -23.05731597531196 47.04128674000345 3.975693351829395e-16 -3.1805546814635164e-15 -1.5902773407317582e-15 -132.8971632636119 -12.909045725929747 119.9532032755576 -1.9220167424023143e-07 -1.9254283241345182e-06 -75.95103161139072 -8.9424884485735e-07 -32.069164158900755 -45.631586395544566 0.0 0.0 0.0 16.45745380271629 -74.43245082137807 48.38960060052656 34.6481843864375 45.706923842406354 -90.3413752648809 72.3524479973021 -35.84434530346998 130.5908828340847 3.1805546814635176e-15 -6.620859447075238e-32 -2.3854160110976384e-15 -116.99246612948771 -57.997461858279095 170.39970319171977 -101.98488669479696 30.243202208124433 163.73193432103554 -92.27807934298534 -8.301926980174475 -164.7715341691674 0.0 0.0 3.1805546814635164e-15
-0.2370000034570694 -0.8889999985694885 2.4649999141693115 83.32011362446437 -22.809113485831787 153.30117064999513 0.16472509469603333 19.861017730753954 -2.126660312729155 1.965050424721634e-06 -1.798266425041805e-07 11.448085971139939 92.8616993477893 -16.509565680290706 -131.98285978247566 1.7378787608796193e-06 -1.247194115219852e-06 116.53633853879482 9.076734947783264e-07 -18.3759045242792 35.7465157869045 1.5902773407317584e-15 6.3611093629270335e-15 -8.827812596100317e-32 -126.60154856935226 -19.315459937452086 124.72622167288007 -5.585505768509212e-08 -7.033398317369339e-07 -79.47138759428387 -1.8946066059920983e-06 -41.83044038123808 -41.51957989599304 1.5902773407317584e-15 0.0 0.0 30.950427857128926 -64.36599928065972 71.07217569844431 39.76895963914719 32.68052214873562 -116.59914137000241 65.80749919848972 -15.46112628516959 155.34704785143728 -4.174478019420865e-15 6.373533404651499e-15 -1.739365841425358e-16 -122.38449429007133 -70.12839669519275 -178.9867176393644 -109.30738965586552 44.75581682865865 161.1517676004879 -91.70778309780503 -17.884540804330417 -139.46570106033442 0.0 6.3611093629270335e-15 0.0
